<?xml version="1.0" encoding="UTF-8" standalone="no"?>
<!-- Created with Inkscape (http://www.inkscape.org/) -->

<svg
   xmlns:dc="http://purl.org/dc/elements/1.1/"
   xmlns:cc="http://creativecommons.org/ns#"
   xmlns:rdf="http://www.w3.org/1999/02/22-rdf-syntax-ns#"
   xmlns:svg="http://www.w3.org/2000/svg"
   xmlns="http://www.w3.org/2000/svg"
   xmlns:sodipodi="http://sodipodi.sourceforge.net/DTD/sodipodi-0.dtd"
   xmlns:inkscape="http://www.inkscape.org/namespaces/inkscape"
   width="360"
   height="330"
   id="svg3752"
   version="1.1"
   inkscape:version="0.48.4 r9939"
   sodipodi:docname="logo_gsi_nuevo.svg"
   inkscape:export-filename="/home/cif/GoogleDrive/docs/gsi/corporativo/logos-fondos/logos/logo_gsi_nuevo_740_671.png"
   inkscape:export-xdpi="185.6273"
   inkscape:export-ydpi="185.6273">
  <defs
     id="defs3754">
    <inkscape:perspective
       sodipodi:type="inkscape:persp3d"
       inkscape:vp_x="0 : 526.18109 : 1"
       inkscape:vp_y="0 : 1000 : 0"
       inkscape:vp_z="744.09448 : 526.18109 : 1"
       inkscape:persp3d-origin="372.04724 : 350.78739 : 1"
       id="perspective3760" />
    <inkscape:perspective
       id="perspective3730"
       inkscape:persp3d-origin="0.5 : 0.33333333 : 1"
       inkscape:vp_z="1 : 0.5 : 1"
       inkscape:vp_y="0 : 1000 : 0"
       inkscape:vp_x="0 : 0.5 : 1"
       sodipodi:type="inkscape:persp3d" />
    <filter
       inkscape:collect="always"
       id="filter3757"
       x="-0.4412556"
       width="1.8825113"
       y="-0.4412556"
       height="1.8825113"
       color-interpolation-filters="sRGB">
      <feGaussianBlur
         inkscape:collect="always"
         stdDeviation="0.91928251"
         id="feGaussianBlur3759" />
    </filter>
  </defs>
  <sodipodi:namedview
     id="base"
     pagecolor="#ffffff"
     bordercolor="#666666"
     borderopacity="1.0"
     inkscape:pageopacity="0.0"
     inkscape:pageshadow="2"
     inkscape:zoom="0.5"
     inkscape:cx="187.12284"
     inkscape:cy="78.411806"
     inkscape:document-units="px"
     inkscape:current-layer="layer1"
     showgrid="false"
     inkscape:window-width="1855"
     inkscape:window-height="1056"
     inkscape:window-x="65"
     inkscape:window-y="24"
     inkscape:window-maximized="1" />
  <metadata
     id="metadata3757">
    <rdf:RDF>
      <cc:Work
         rdf:about="">
        <dc:format>image/svg+xml</dc:format>
        <dc:type
           rdf:resource="http://purl.org/dc/dcmitype/StillImage" />
        <dc:title></dc:title>
      </cc:Work>
    </rdf:RDF>
  </metadata>
  <g
     inkscape:label="Capa 1"
     inkscape:groupmode="layer"
     id="layer1"
     transform="translate(0,-722.36218)">
    <g
       style="display:inline"
       id="g3761"
       transform="matrix(2.2932314,0,0,2.2932314,-744.72199,6804.6985)">
      <g
         transform="translate(-161.76758,3.3349672)"
         id="g2940">
        <g
           id="g2922">
          <g
             transform="translate(-79.72168,-3162.9998)"
             style="font-size:40px;font-style:normal;font-variant:normal;font-weight:bold;font-stretch:normal;fill:#00a9e0;fill-opacity:1;stroke:none;font-family:Calibri;-inkscape-font-specification:Calibri Bold"
             id="flowRoot4140">
            <path
               d="m 688.88086,587.87773 c -6e-5,3.71096 -0.70806,6.98244 -2.12402,9.81446 -1.36724,2.83204 -3.32037,5.2002 -5.85938,7.10449 -2.53911,1.9043 -5.54203,3.32031 -9.00879,4.24805 -3.46683,0.97656 -7.22659,1.46484 -11.2793,1.46484 -2.44143,0 -4.78517,-0.19531 -7.03125,-0.58594 -2.19728,-0.34179 -4.17482,-0.78125 -5.93261,-1.31836 -1.75783,-0.58593 -3.22267,-1.17187 -4.39453,-1.75781 -1.17189,-0.58593 -2.02638,-1.12304 -2.56348,-1.61133 -0.53712,-0.5371 -0.95215,-1.34277 -1.24512,-2.41699 -0.29297,-1.12304 -0.43946,-2.75878 -0.43945,-4.90723 -10e-6,-1.416 0.0488,-2.53904 0.14648,-3.36914 0.0977,-0.87889 0.24414,-1.56248 0.43946,-2.05078 0.1953,-0.53709 0.43944,-0.87889 0.73242,-1.02539 0.29296,-0.19529 0.65917,-0.29295 1.09863,-0.29297 0.5371,2e-5 1.31835,0.3174 2.34375,0.95215 1.07421,0.58595 2.39257,1.24513 3.95508,1.97754 1.56248,0.73244 3.36912,1.41603 5.41992,2.05078 2.09959,0.63478 4.46775,0.95216 7.10449,0.95215 1.66013,10e-6 3.12497,-0.17089 4.39454,-0.5127 1.31832,-0.34178 2.44137,-0.83006 3.36914,-1.46484 0.97652,-0.63475 1.70894,-1.44041 2.19726,-2.41699 0.48825,-0.97655 0.73239,-2.09959 0.73242,-3.36914 -3e-5,-1.46482 -0.4639,-2.70994 -1.3916,-3.73535 -0.87894,-1.0742 -2.07523,-2.00193 -3.58887,-2.78321 -1.46487,-0.78122 -3.14944,-1.51364 -5.05371,-2.19726 -1.85549,-0.68357 -3.7842,-1.4404 -5.78613,-2.27051 -1.95314,-0.83005 -3.88185,-1.78219 -5.78613,-2.85645 -1.85548,-1.07418 -3.54005,-2.39254 -5.05371,-3.95507 -1.46486,-1.56246 -2.66114,-3.44235 -3.58887,-5.63965 -0.87891,-2.19722 -1.31837,-4.83394 -1.31836,-7.91016 -10e-6,-3.12494 0.61035,-5.98139 1.83106,-8.56933 1.22069,-2.63666 2.9785,-4.88275 5.27343,-6.73829 2.29491,-1.8554 5.07811,-3.29582 8.34961,-4.32128 3.32029,-1.02532 7.03122,-1.53802 11.13281,-1.53809 2.05075,7e-5 4.02829,0.14656 5.93262,0.43945 1.95309,0.29304 3.7109,0.65925 5.27344,1.09864 1.56245,0.43952 2.88081,0.9278 3.95508,1.46484 1.07417,0.48835 1.831,0.9278 2.27051,1.31836 0.48823,0.34186 0.83002,0.70807 1.02539,1.09863 0.19526,0.34186 0.34174,0.78132 0.43945,1.31836 0.0976,0.48835 0.17085,1.12311 0.21973,1.9043 0.0976,0.73248 0.14643,1.66022 0.14648,2.7832 -5e-5,1.31842 -0.0489,2.39264 -0.14648,3.22266 -0.0489,0.83013 -0.17095,1.48931 -0.36622,1.97754 -0.14653,0.48833 -0.36626,0.83013 -0.65918,1.02539 -0.29301,0.14654 -0.63481,0.21978 -1.02539,0.21972 -0.4395,6e-5 -1.12309,-0.24408 -2.05078,-0.73242 -0.92778,-0.53705 -2.09965,-1.09858 -3.51562,-1.68457 -1.36723,-0.58588 -2.97856,-1.12299 -4.83399,-1.61133 -1.80667,-0.53705 -3.88187,-0.8056 -6.22558,-0.80566 -1.66019,6e-5 -3.10062,0.17096 -4.32129,0.51269 -1.22073,0.34186 -2.22171,0.83014 -3.00293,1.46485 -0.78128,0.63482 -1.36721,1.39166 -1.75781,2.27051 -0.39065,0.83013 -0.58596,1.73345 -0.58594,2.70996 -2e-5,1.51372 0.46384,2.78325 1.3916,3.80859 0.92771,1.02544 2.14841,1.92876 3.66211,2.70996 1.51364,0.7813 3.22262,1.51372 5.12695,2.19727 1.95309,0.68363 3.90622,1.44047 5.85938,2.27051 2.00191,0.78129 3.95503,1.70902 5.85937,2.7832 1.95308,1.07425 3.68648,2.39261 5.2002,3.95508 1.51362,1.56253 2.73432,3.44241 3.66211,5.63964 0.92768,2.14847 1.39154,4.71194 1.3916,7.69043"
               style="font-size:150px;fill:#00a9e0;font-family:Calibri;-inkscape-font-specification:Calibri Bold"
               id="path3806" />
            <path
               d="m 721.10742,606.33477 c -3e-5,0.48828 -0.14651,0.92773 -0.43945,1.31836 -0.293,0.34179 -0.80569,0.63476 -1.53809,0.8789 -0.68362,0.24414 -1.61135,0.41504 -2.7832,0.5127 -1.1719,0.14648 -2.66115,0.21972 -4.46777,0.21972 -1.80666,0 -3.29592,-0.0732 -4.46778,-0.21972 -1.17189,-0.0977 -2.12403,-0.26856 -2.85644,-0.5127 -0.68361,-0.24414 -1.17189,-0.53711 -1.46485,-0.8789 -0.29297,-0.39063 -0.43946,-0.83008 -0.43945,-1.31836 l 0,-65.18555 c -10e-6,-0.48821 0.14648,-0.90325 0.43945,-1.24512 0.29296,-0.39055 0.78124,-0.70794 1.46485,-0.95215 0.73241,-0.2929 1.68455,-0.51262 2.85644,-0.65918 1.17186,-0.14641 2.66112,-0.21965 4.46778,-0.21972 1.80662,7e-5 3.29587,0.0733 4.46777,0.21972 1.17185,0.14656 2.09958,0.36628 2.7832,0.65918 0.7324,0.24421 1.24509,0.5616 1.53809,0.95215 0.29294,0.34187 0.43942,0.75691 0.43945,1.24512 l 0,65.18555 m 1.3916,-87.45118 c -3e-5,3.71103 -0.75686,6.2745 -2.2705,7.69043 -1.5137,1.4161 -4.32132,2.12411 -8.42286,2.12403 -4.1504,8e-5 -6.95802,-0.68352 -8.42285,-2.05078 -1.41602,-1.36711 -2.12403,-3.83293 -2.12402,-7.39747 -10e-6,-3.71084 0.73241,-6.27431 2.19726,-7.69042 1.51367,-1.46475 4.34569,-2.19717 8.4961,-2.19727 4.10154,1e-4 6.88474,0.70811 8.34961,2.12402 1.46481,1.36729 2.19723,3.8331 2.19726,7.39746"
               style="font-size:150px;fill:#00a9e0;font-family:Calibri;-inkscape-font-specification:Calibri Bold"
               id="path3808" />
          </g>
          <g
             transform="matrix(1,0,0,1.1503876,-79.72168,-3243.7762)"
             style="font-size:40px;font-style:normal;font-variant:normal;font-weight:bold;font-stretch:normal;fill:#00a9e0;fill-opacity:1;stroke:none;font-family:Calibri;-inkscape-font-specification:Calibri Bold"
             id="flowRoot2914">
            <path
               d="m 633.80273,545.54375 c -6e-5,2.34381 -0.26862,4.07721 -0.80566,5.2002 -0.53718,1.1231 -1.19635,1.68462 -1.97754,1.68457 l -7.69043,0 c 1.07416,1.17193 1.831,2.5147 2.27051,4.02832 0.48822,1.46489 0.73236,3.00297 0.73242,4.61425 -6e-5,3.80864 -0.63482,7.20219 -1.9043,10.18067 -1.26958,2.92972 -3.10064,5.41995 -5.49316,7.4707 -2.3438,2.00198 -5.20024,3.54007 -8.56934,4.61426 -3.32035,1.02541 -7.03128,1.53811 -11.13281,1.53808 -2.09964,3e-5 -4.10159,-0.24411 -6.00586,-0.73242 -1.90432,-0.53708 -3.36916,-1.14743 -4.39453,-1.83105 -0.58596,0.63479 -1.12307,1.39162 -1.61133,2.27051 -0.43947,0.87893 -0.6592,1.85549 -0.65918,2.92968 -2e-5,1.41604 0.61033,2.58791 1.83106,3.51563 1.26951,0.87892 3.02732,1.3672 5.27344,1.46484 l 15.89355,0.58594 c 3.71089,0.1465 7.00679,0.68361 9.8877,1.61133 2.92963,0.87892 5.37103,2.14845 7.32421,3.80859 2.00189,1.61134 3.51556,3.56446 4.54102,5.85938 1.07415,2.29492 1.61126,4.90722 1.61133,7.83691 -7e-5,3.22265 -0.70808,6.24999 -2.12403,9.08203 -1.41607,2.88085 -3.5401,5.37108 -6.37207,7.47071 -2.83208,2.09958 -6.39653,3.75974 -10.69336,4.98046 -4.24809,1.22068 -9.22855,1.83103 -14.9414,1.83106 -5.56644,-3e-5 -10.32717,-0.43948 -14.28223,-1.31836 -3.90626,-0.87893 -7.12892,-2.09963 -9.66797,-3.66211 -2.49024,-1.56252 -4.32129,-3.4424 -5.49316,-5.63965 -1.12305,-2.14845 -1.68457,-4.51661 -1.68457,-7.10449 0,-1.61134 0.19531,-3.14942 0.58594,-4.61426 0.43945,-1.46485 1.0498,-2.88086 1.83105,-4.24805 0.83007,-1.31835 1.83105,-2.58788 3.00293,-3.80859 1.17187,-1.2207 2.51464,-2.39257 4.02832,-3.51562 -2.09962,-1.12304 -3.73536,-2.63671 -4.90723,-4.54102 -1.12305,-1.95311 -1.68457,-4.07713 -1.68457,-6.37207 0,-2.88084 0.65918,-5.49314 1.97754,-7.83691 1.31835,-2.39255 3.02734,-4.54099 5.12696,-6.44532 -1.709,-1.70895 -3.07618,-3.75973 -4.10157,-6.15234 -1.02539,-2.39254 -1.53809,-5.37105 -1.53808,-8.93555 -10e-6,-3.80854 0.65917,-7.20209 1.97754,-10.18066 1.36718,-3.02728 3.24706,-5.56634 5.63965,-7.61719 2.39256,-2.09954 5.249,-3.68645 8.56933,-4.76074 3.32029,-1.12298 6.98239,-1.6845 10.98633,-1.68457 2.05075,7e-5 4.00387,0.12214 5.85937,0.36621 1.90426,0.24421 3.66207,0.58601 5.27344,1.02539 l 20.72754,0 c 0.83001,7e-5 1.48919,0.53718 1.97754,1.61133 0.53704,1.07428 0.8056,2.88092 0.80566,5.41992 m -23.65722,15.4541 c -5e-5,-3.51557 -0.97661,-6.24994 -2.92969,-8.20312 -1.95316,-1.95307 -4.71195,-2.92963 -8.27637,-2.92969 -1.80667,6e-5 -3.39358,0.31744 -4.76074,0.95215 -1.36721,0.58599 -2.51467,1.41607 -3.44238,2.49023 -0.87893,1.02545 -1.53811,2.24615 -1.97754,3.66211 -0.43948,1.36724 -0.6592,2.80767 -0.65918,4.32129 -2e-5,3.32036 0.97654,5.95707 2.92969,7.91016 1.95309,1.90433 4.66305,2.85648 8.12988,2.85644 1.85543,4e-5 3.46676,-0.29293 4.83398,-0.8789 1.36715,-0.5859 2.4902,-1.39157 3.36914,-2.417 0.9277,-1.02535 1.61129,-2.19722 2.05079,-3.51562 0.48823,-1.36714 0.73237,-2.78316 0.73242,-4.24805 m 4.32129,52.14844 c -5e-5,-2.19727 -0.87896,-3.88184 -2.63672,-5.05371 -1.75786,-1.17187 -4.17485,-1.80664 -7.25098,-1.9043 l -13.11035,-0.36621 c -1.26956,0.92774 -2.29495,1.83106 -3.07617,2.70996 -0.73245,0.83008 -1.3428,1.63574 -1.83106,2.41699 -0.43947,0.78125 -0.73244,1.53809 -0.8789,2.27051 -0.14651,0.73242 -0.21975,1.48925 -0.21973,2.27051 -2e-5,2.4414 1.22068,4.29686 3.66211,5.56641 2.49021,1.26951 5.98142,1.90428 10.47363,1.90429 2.78317,-10e-6 5.12692,-0.29298 7.03125,-0.8789 1.90426,-0.53713 3.44234,-1.26955 4.61426,-2.19727 1.17183,-0.92774 2.00191,-1.97755 2.49023,-3.14941 0.48824,-1.12306 0.73238,-2.31935 0.73243,-3.58887"
               style="font-size:150px;fill:#00a9e0;font-family:Calibri;-inkscape-font-specification:Calibri Bold"
               id="path3811" />
          </g>
        </g>
      </g>
      <g
         transform="translate(-154.76465,-3152.2336)"
         style="font-size:42px;font-style:normal;font-variant:normal;font-weight:bold;font-stretch:normal;fill:#00629b;fill-opacity:0.98431373;stroke:none;font-family:Calibri;-inkscape-font-specification:AlArabiya Bold"
         id="flowRoot3727">
        <path
           d="m 574.2041,625.37123 c -2e-5,1.62697 -0.23928,3.08302 -0.71777,4.36817 -0.47854,1.28516 -1.18264,2.37207 -2.11231,3.26074 -0.9297,0.88867 -2.07814,1.56543 -3.44531,2.03027 -1.3672,0.46485 -2.93947,0.69727 -4.7168,0.69727 -1.66798,0 -3.16505,-0.20508 -4.49121,-0.61523 -1.32618,-0.42383 -2.44727,-1.05957 -3.36328,-1.90723 -0.91602,-0.84765 -1.62012,-1.90039 -2.1123,-3.1582 -0.47852,-1.27148 -0.71778,-2.75488 -0.71778,-4.4502 l 0,-16.13965 c 0,-0.13669 0.041,-0.25974 0.12305,-0.36914 0.082,-0.10935 0.22558,-0.19821 0.43066,-0.2666 0.21875,-0.0683 0.49902,-0.12302 0.84082,-0.16406 0.3418,-0.041 0.7793,-0.0615 1.3125,-0.0615 0.51953,3e-5 0.95019,0.0205 1.292,0.0615 0.34179,0.041 0.61522,0.0957 0.82031,0.16406 0.20507,0.0684 0.34862,0.15725 0.43066,0.2666 0.0957,0.1094 0.14355,0.23245 0.14356,0.36914 l 0,15.66797 c -10e-6,1.05274 0.12987,1.96876 0.38965,2.74805 0.25975,0.76563 0.62889,1.40137 1.10742,1.90722 0.49218,0.50587 1.07323,0.88868 1.74316,1.14844 0.68358,0.2461 1.44237,0.36915 2.27637,0.36914 0.84764,10e-6 1.60643,-0.12988 2.27637,-0.38965 0.6699,-0.25976 1.23728,-0.63573 1.70215,-1.12793 0.46482,-0.50585 0.82029,-1.12108 1.0664,-1.8457 0.25975,-0.73827 0.38963,-1.57226 0.38965,-2.50195 l 0,-15.97559 c -2e-5,-0.13669 0.041,-0.25974 0.12305,-0.36914 0.082,-0.10935 0.22556,-0.19821 0.43066,-0.2666 0.20506,-0.0683 0.4785,-0.12302 0.82031,-0.16406 0.35545,-0.041 0.79295,-0.0615 1.3125,-0.0615 0.51951,3e-5 0.94334,0.0205 1.27149,0.0615 0.34177,0.041 0.61521,0.0957 0.82031,0.16406 0.20505,0.0684 0.34861,0.15725 0.43066,0.2666 0.082,0.1094 0.12303,0.23245 0.12305,0.36914 l 0,15.91406"
           id="path3814" />
        <path
           d="m 598.11621,616.77846 c -2e-5,1.49025 -0.23244,2.80959 -0.69726,3.95801 -0.46487,1.14845 -1.14163,2.11915 -2.03028,2.91211 -0.88869,0.77931 -1.98244,1.37403 -3.28125,1.78418 -1.28517,0.41016 -2.80274,0.61524 -4.55273,0.61523 l -2.21485,0 0,8.46973 c 0,0.13672 -0.0479,0.25976 -0.14355,0.36914 -0.082,0.10937 -0.22559,0.19824 -0.43067,0.2666 -0.20508,0.0684 -0.47852,0.12305 -0.82031,0.16406 -0.3418,0.041 -0.7793,0.0615 -1.3125,0.0615 -0.51953,0 -0.95703,-0.0205 -1.3125,-0.0615 -0.3418,-0.041 -0.61524,-0.0957 -0.82031,-0.16406 -0.20508,-0.0684 -0.34864,-0.15723 -0.43066,-0.2666 -0.082,-0.10938 -0.12305,-0.23242 -0.12305,-0.36914 l 0,-23.8711 c 0,-0.64255 0.16406,-1.12106 0.49219,-1.43554 0.34179,-0.3281 0.78613,-0.49216 1.333,-0.49219 l 6.25489,0 c 0.62889,3e-5 1.22362,0.0274 1.78418,0.082 0.5742,0.041 1.2578,0.14358 2.05078,0.30762 0.79295,0.15042 1.59276,0.43752 2.39941,0.86133 0.8203,0.42385 1.51756,0.96389 2.0918,1.62011 0.5742,0.64261 1.0117,1.40139 1.3125,2.27637 0.30076,0.86135 0.45115,1.83205 0.45117,2.91211 m -5.63965,0.38965 c -10e-6,-0.92967 -0.16408,-1.69529 -0.49219,-2.29688 -0.32813,-0.60154 -0.73145,-1.04587 -1.20996,-1.333 -0.47852,-0.28709 -0.98438,-0.46483 -1.51757,-0.53321 -0.51955,-0.082 -1.05959,-0.12302 -1.62012,-0.12304 l -2.29688,0 0,9.00293 2.41993,0 c 0.86131,1e-5 1.57908,-0.1162 2.15332,-0.34864 0.58787,-0.2324 1.06639,-0.55369 1.43554,-0.96386 0.36913,-0.42382 0.6494,-0.92284 0.84082,-1.49707 0.19139,-0.58788 0.2871,-1.22362 0.28711,-1.90723"
           id="path3816" />
        <path
           d="m 633.2666,634.51772 c -3e-5,0.13672 -0.0411,0.25976 -0.12305,0.36914 -0.0684,0.10937 -0.20511,0.19824 -0.41015,0.2666 -0.19144,0.0684 -0.45121,0.12305 -0.7793,0.16406 -0.32816,0.041 -0.74515,0.0615 -1.25098,0.0615 -0.49221,0 -0.90237,-0.0205 -1.23046,-0.0615 -0.32816,-0.041 -0.58792,-0.0957 -0.7793,-0.16406 -0.19144,-0.0684 -0.32815,-0.15723 -0.41016,-0.2666 -0.0821,-0.10938 -0.12307,-0.23242 -0.12304,-0.36914 l 0,-21.59473 -0.041,0 -7.69043,21.57422 c -0.0547,0.17774 -0.14357,0.32813 -0.2666,0.45117 -0.12307,0.10938 -0.29397,0.19825 -0.5127,0.2666 -0.20509,0.0684 -0.4717,0.10938 -0.7998,0.12305 -0.32814,0.0273 -0.72463,0.041 -1.18945,0.041 -0.46487,0 -0.86135,-0.0205 -1.18946,-0.0615 -0.32814,-0.0273 -0.60158,-0.0752 -0.82031,-0.14355 -0.20509,-0.082 -0.36916,-0.17774 -0.49219,-0.28711 -0.12306,-0.10938 -0.20509,-0.23926 -0.24609,-0.38965 l -7.42383,-21.57422 -0.041,0 0,21.59473 c -1e-5,0.13672 -0.041,0.25976 -0.12305,0.36914 -0.0684,0.10937 -0.20509,0.19824 -0.41016,0.2666 -0.20508,0.0684 -0.47168,0.12305 -0.7998,0.16406 -0.31446,0.041 -0.72462,0.0615 -1.23047,0.0615 -0.49219,0 -0.90235,-0.0205 -1.23047,-0.0615 -0.32813,-0.041 -0.59473,-0.0957 -0.7998,-0.16406 -0.19141,-0.0684 -0.32813,-0.15723 -0.41016,-0.2666 -0.0684,-0.10938 -0.10254,-0.23242 -0.10254,-0.36914 l 0,-23.64551 c 0,-0.69724 0.18457,-1.23044 0.55371,-1.59961 0.36914,-0.36911 0.86133,-0.55368 1.47656,-0.55371 l 3.52735,0 c 0.62889,3e-5 1.16893,0.0547 1.62011,0.16406 0.45117,0.0957 0.84081,0.26663 1.16895,0.5127 0.32811,0.23245 0.60155,0.5469 0.82031,0.94336 0.21874,0.38283 0.41015,0.86135 0.57422,1.43554 l 5.74219,15.81153 0.082,0 5.94727,-15.77051 c 0.17771,-0.57419 0.36911,-1.05955 0.57421,-1.45605 0.21873,-0.39646 0.46482,-0.71775 0.73829,-0.96387 0.28708,-0.24607 0.62204,-0.41697 1.00488,-0.5127 0.38278,-0.10935 0.82712,-0.16403 1.33301,-0.16406 l 3.62988,0 c 0.36911,3e-5 0.68356,0.0479 0.94336,0.14356 0.2734,0.0957 0.49215,0.23928 0.65625,0.43066 0.1777,0.17776 0.30758,0.40335 0.38965,0.67676 0.0957,0.25979 0.14352,0.56057 0.14355,0.90234 l 0,23.64551"
           id="path3818" />
      </g>
      <path
         transform="matrix(1.6,0,0,1.6,-233,-3460.4252)"
         style="fill:#ffffff;fill-opacity:0.98431373;filter:url(#filter3757)"
         d="m 445,510.49219 c 0,1.38071 -1.11929,2.5 -2.5,2.5 -1.38071,0 -2.5,-1.11929 -2.5,-2.5 0,-1.38071 1.11929,-2.5 2.5,-2.5 1.38071,0 2.5,1.11929 2.5,2.5 z"
         id="path3735" />
    </g>
  </g>
</svg>
