<?xml version="1.0" ?><!DOCTYPE svg  PUBLIC '-//W3C//DTD SVG 1.0//EN'  'http://www.w3.org/TR/2001/REC-SVG-20010904/DTD/svg10.dtd'><svg enable-background="new 0 0 91.8 92.6" id="Layer_1" version="1.0" viewBox="0 0 91.8 92.6" xml:space="preserve" xmlns="http://www.w3.org/2000/svg" xmlns:xlink="http://www.w3.org/1999/xlink"><path d="M46.3,3.6c-23.5,0-42.5,19-42.5,42.5s19,42.5,42.5,42.5c23.5,0,42.5-19,42.5-42.5S69.8,3.6,46.3,3.6z   M72.8,52.9H53v19.8c0,2-1.6,3.6-3.6,3.6h-6.2c-2,0-3.6-1.6-3.6-3.6V52.9H19.8c-2,0-3.6-1.6-3.6-3.6v-6.2c0-2,1.6-3.6,3.6-3.6h19.8  V19.7c0-2,1.6-3.6,3.6-3.6h6.2c2,0,3.6,1.6,3.6,3.6v19.8h19.8c2,0,3.6,1.6,3.6,3.6v6.2C76.4,51.2,74.8,52.9,72.8,52.9z" fill="#1E1E1E"/></svg>